<?xml version="1.0" encoding="UTF-8" standalone="no"?><!DOCTYPE svg PUBLIC "-//W3C//DTD SVG 1.1//EN" "http://www.w3.org/Graphics/SVG/1.1/DTD/svg11.dtd"><svg width="100%" height="100%" viewBox="0 0 378 358" version="1.1" xmlns="http://www.w3.org/2000/svg" xmlns:xlink="http://www.w3.org/1999/xlink" xml:space="preserve" xmlns:serif="http://www.serif.com/" style="fill-rule:evenodd;clip-rule:evenodd;stroke-linejoin:round;stroke-miterlimit:2;"><g><path d="M375.946,203.794l-36.086,-62.501l-36.084,62.501l21.833,0c-1.961,11.17 -5.12,21.917 -9.418,32.082c-11.31,26.748 -30.242,49.551 -54.055,65.636c-23.823,16.084 -52.444,25.459 -83.384,25.465c-20.633,-0.002 -40.216,-4.174 -58.053,-11.716c-26.748,-11.311 -49.551,-30.242 -65.636,-54.054c-16.085,-23.824 -25.459,-52.445 -25.465,-83.385c0.002,-20.633 4.174,-40.216 11.716,-58.053c11.31,-26.748 30.242,-49.551 54.055,-65.636c23.822,-16.084 52.443,-25.459 83.383,-25.464c20.634,0.002 40.217,4.173 58.054,11.715c26.65,11.269 49.379,30.107 65.455,53.797l-106.465,0l-20.953,0l-43.729,0c-24.455,0 -43.165,6.9 -56.134,20.693c-12.971,13.798 -19.454,34.82 -19.454,63.072c0,28.089 6.483,49.031 19.454,62.825c12.969,13.798 31.679,20.694 56.134,20.694l64.682,0l0,-29.245l-64.682,0c-16.358,0 -28.171,-4.252 -35.439,-12.763c-7.272,-8.507 -10.907,-22.343 -10.907,-41.511c0,-19.331 3.676,-33.247 11.03,-41.759c7.349,-8.507 19.121,-12.763 35.316,-12.763l92.551,0l0,138.041l29.491,0l0,-138.041l94.758,0c-1.614,-5.02 -3.432,-9.947 -5.468,-14.76c-2.095,-4.952 -4.432,-9.773 -6.95,-14.483c-13.7,-25.624 -33.455,-47.489 -57.401,-63.669c-28.338,-19.154 -62.597,-30.357 -99.343,-30.351c-24.49,-0.002 -47.895,4.972 -69.158,13.968c-31.901,13.496 -58.999,36.004 -78.153,64.352c-19.155,28.337 -30.356,62.596 -30.35,99.341c-0.002,24.491 4.971,47.896 13.967,69.159c13.497,31.901 36.005,58.999 64.352,78.153c28.338,19.154 62.597,30.355 99.342,30.35c24.491,0.003 47.895,-4.971 69.159,-13.967c31.9,-13.497 58.999,-36.005 78.152,-64.353c14.559,-21.537 24.506,-46.5 28.448,-73.37l21.435,0Z" style="fill:url(#_Linear1);"/></g><defs><linearGradient id="_Linear1" x1="0" y1="0" x2="1" y2="0" gradientUnits="userSpaceOnUse" gradientTransform="matrix(3.06661e-12,298.111,-298.111,3.06661e-12,188.518,33.8435)"><stop offset="0" style="stop-color:#58caf1;stop-opacity:1"/><stop offset="1" style="stop-color:#4979bd;stop-opacity:1"/></linearGradient></defs></svg>