<?xml version="1.0" encoding="UTF-8" standalone="no"?><!DOCTYPE svg PUBLIC "-//W3C//DTD SVG 1.1//EN" "http://www.w3.org/Graphics/SVG/1.1/DTD/svg11.dtd"><svg width="100%" height="100%" viewBox="0 0 725 473" version="1.1" xmlns="http://www.w3.org/2000/svg" xmlns:xlink="http://www.w3.org/1999/xlink" xml:space="preserve" xmlns:serif="http://www.serif.com/" style="fill-rule:evenodd;clip-rule:evenodd;stroke-linejoin:round;stroke-miterlimit:2;"><g><path d="M31.281,472.114c-4.49,0 -8.642,-0.842 -12.451,-2.526c-3.809,-1.683 -7.12,-3.987 -9.925,-6.911c-2.808,-2.926 -4.996,-6.396 -6.558,-10.415c-1.566,-4.016 -2.347,-8.359 -2.347,-13.025c0,-4.726 0.781,-9.04 2.347,-12.94c1.562,-3.898 3.75,-7.223 6.558,-9.97c2.805,-2.747 6.116,-4.873 9.925,-6.38c3.809,-1.506 7.961,-2.259 12.451,-2.259l34.916,0l0,11.255l-34.916,0c-2.894,0 -5.569,0.516 -8.02,1.548c-2.452,1.037 -4.565,2.469 -6.336,4.299c-1.774,1.832 -3.161,4.02 -4.166,6.559c-1.004,2.54 -1.506,5.346 -1.506,8.418c0,3.013 0.502,5.82 1.506,8.42c1.005,2.6 2.392,4.829 4.166,6.69c1.771,1.86 3.884,3.324 6.336,4.387c2.451,1.063 5.126,1.596 8.02,1.596l34.916,0l0,11.254l-34.916,0Z" style="fill:#b30000;fill-opacity:0;fill-rule:nonzero;stroke:url(#_Linear1);stroke-width:1.5px;"/><path d="M127.525,460.86c2.954,0 5.67,-0.533 8.151,-1.596c2.481,-1.063 4.624,-2.527 6.425,-4.387c1.804,-1.861 3.206,-4.09 4.211,-6.69c1.004,-2.6 1.506,-5.407 1.506,-8.42c0,-3.013 -0.502,-5.803 -1.506,-8.374c-1.005,-2.571 -2.407,-4.771 -4.211,-6.603c-1.801,-1.83 -3.944,-3.262 -6.425,-4.299c-2.481,-1.032 -5.197,-1.548 -8.151,-1.548l-15.687,0c-2.894,0 -5.568,0.516 -8.02,1.548c-2.452,1.037 -4.565,2.469 -6.335,4.299c-1.775,1.832 -3.163,4.02 -4.167,6.559c-1.004,2.54 -1.507,5.346 -1.507,8.418c0,3.013 0.503,5.82 1.507,8.42c1.004,2.6 2.392,4.829 4.167,6.69c1.77,1.86 3.883,3.324 6.335,4.387c2.452,1.063 5.126,1.596 8.02,1.596l15.687,0Zm-15.687,11.254c-4.49,0 -8.641,-0.842 -12.451,-2.526c-3.809,-1.683 -7.12,-3.987 -9.925,-6.911c-2.809,-2.926 -4.996,-6.396 -6.559,-10.415c-1.565,-4.016 -2.347,-8.359 -2.347,-13.025c0,-4.726 0.782,-9.04 2.347,-12.94c1.563,-3.898 3.75,-7.223 6.559,-9.97c2.805,-2.747 6.116,-4.873 9.925,-6.38c3.81,-1.506 7.961,-2.259 12.451,-2.259l15.687,0c4.666,0 8.936,0.767 12.805,2.302c3.869,1.538 7.191,3.694 9.969,6.471c2.775,2.777 4.933,6.101 6.47,9.97c1.536,3.868 2.306,8.139 2.306,12.806c0,4.666 -0.785,9.009 -2.351,13.025c-1.566,4.019 -3.754,7.489 -6.558,10.415c-2.806,2.924 -6.131,5.228 -9.97,6.911c-3.839,1.684 -8.065,2.526 -12.671,2.526l-15.687,0Z" style="fill:#b30000;fill-opacity:0;fill-rule:nonzero;stroke:url(#_Linear2);stroke-width:1.5px;"/><path d="M185.747,424.969l0,47.145l-10.724,0l0,-58.49c0,-2.068 0.517,-3.707 1.551,-4.918c1.034,-1.21 2.436,-1.816 4.211,-1.816c0.826,0 1.622,0.177 2.392,0.531c0.766,0.354 1.566,0.945 2.392,1.773l45.462,45.107l0,-47.146l10.725,0l0,59.022c0,2.126 -0.517,3.781 -1.551,4.963c-1.035,1.18 -2.378,1.772 -4.033,1.772c-1.83,0 -3.545,-0.798 -5.141,-2.393l-45.284,-45.55Z" style="fill:#b30000;fill-opacity:0;fill-rule:nonzero;stroke:url(#_Linear3);stroke-width:1.5px;"/><path d="M259.742,472.114l0,-11.254l48.297,0c3.013,0 5.331,-0.767 6.956,-2.305c1.626,-1.534 2.437,-3.573 2.437,-6.114c0,-2.777 -0.811,-4.861 -2.437,-6.247c-1.625,-1.388 -3.943,-2.084 -6.956,-2.084l-29.6,0c-3.014,0 -5.744,-0.457 -8.195,-1.373c-2.452,-0.917 -4.52,-2.185 -6.205,-3.811c-1.682,-1.625 -2.984,-3.56 -3.899,-5.805c-0.915,-2.245 -1.373,-4.696 -1.373,-7.356c0,-2.599 0.428,-5.007 1.284,-7.223c0.855,-2.215 2.128,-4.12 3.813,-5.716c1.681,-1.593 3.765,-2.849 6.245,-3.766c2.482,-0.915 5.316,-1.372 8.508,-1.372l46.262,0l0,11.255l-46.262,0c-2.6,0 -4.609,0.693 -6.026,2.081c-1.418,1.389 -2.128,3.324 -2.128,5.804c0,2.482 0.726,4.404 2.172,5.761c1.448,1.359 3.412,2.039 5.893,2.039l29.511,0c6.558,0 11.536,1.536 14.932,4.609c3.396,3.071 5.096,7.739 5.096,14c0,2.719 -0.413,5.23 -1.238,7.533c-0.83,2.304 -2.069,4.299 -3.724,5.982c-1.656,1.685 -3.739,3 -6.246,3.944c-2.515,0.946 -5.45,1.418 -8.82,1.418l-48.297,0Z" style="fill:#b30000;fill-opacity:0;fill-rule:nonzero;stroke:url(#_Linear4);stroke-width:1.5px;"/><path d="M402.423,407.688l10.989,0l0,35.979c0,4.963 -0.651,9.291 -1.95,12.984c-1.302,3.691 -3.34,6.749 -6.115,9.17c-2.78,2.424 -6.368,4.227 -10.77,5.408c-4.4,1.181 -9.731,1.77 -15.996,1.77c-6.201,0 -11.506,-0.589 -15.907,-1.77c-4.4,-1.181 -7.99,-2.984 -10.765,-5.408c-2.779,-2.421 -4.818,-5.479 -6.116,-9.17c-1.302,-3.693 -1.949,-8.021 -1.949,-12.984l0,-35.979l11.61,0l0,35.979c0,3.25 0.398,6.027 1.194,8.329c0.8,2.305 2.098,4.197 3.899,5.673c1.804,1.478 4.211,2.556 7.224,3.234c3.013,0.68 6.733,1.02 11.168,1.02c4.43,0 8.15,-0.34 11.164,-1.02c3.012,-0.678 5.42,-1.756 7.223,-3.234c1.801,-1.476 3.103,-3.368 3.899,-5.673c0.797,-2.302 1.198,-5.079 1.198,-8.329l0,-35.979Z" style="fill:#b30000;fill-opacity:0;fill-rule:nonzero;stroke:url(#_Linear5);stroke-width:1.5px;"/><path d="M430.691,472.114l0,-64.426l11.253,0l0,53.172l43.338,0l0,11.254l-54.591,0Z" style="fill:#b30000;fill-opacity:0;fill-rule:nonzero;stroke:url(#_Linear6);stroke-width:1.5px;"/><path d="M511.158,472.114l0,-53.171l-24.463,0l0,-11.255l60.176,0l0,11.255l-24.46,0l0,53.171l-11.253,0Z" style="fill:#b30000;fill-opacity:0;fill-rule:nonzero;stroke:url(#_Linear7);stroke-width:1.5px;"/><path d="M616.439,472.114l-9.658,-16.217l-30.485,0l5.315,-9.129l19.765,0l-14.359,-24.104l-29.243,49.45l-12.849,0l37.04,-61.679c0.651,-1.122 1.421,-2.009 2.307,-2.66c0.885,-0.65 1.949,-0.975 3.188,-0.975c1.242,0 2.291,0.325 3.147,0.975c0.855,0.651 1.611,1.538 2.261,2.66l37.13,61.679l-13.559,0Z" style="fill:#b30000;fill-opacity:0;fill-rule:nonzero;stroke:url(#_Linear8);stroke-width:1.5px;"/><path d="M708.78,472.114l-27.029,-26.321l-26.762,26.321l-14.624,0l34.563,-33.499l-32.081,-30.927l15.509,0l24.548,23.838l24.195,-23.838l14.62,0l-32.078,30.927l34.916,33.499l-15.777,0Z" style="fill:#b30000;fill-opacity:0;fill-rule:nonzero;stroke:url(#_Linear9);stroke-width:1.5px;"/><path d="M549.706,203.794l-36.086,-62.501l-36.084,62.501l21.833,0c-1.961,11.17 -5.12,21.917 -9.418,32.082c-11.31,26.748 -30.242,49.551 -54.055,65.636c-23.823,16.084 -52.444,25.459 -83.384,25.465c-20.633,-0.002 -40.216,-4.174 -58.053,-11.716c-26.748,-11.311 -49.551,-30.242 -65.636,-54.054c-16.085,-23.824 -25.459,-52.445 -25.465,-83.385c0.002,-20.633 4.174,-40.216 11.716,-58.053c11.31,-26.748 30.242,-49.551 54.055,-65.636c23.822,-16.084 52.443,-25.459 83.383,-25.464c20.634,0.002 40.217,4.173 58.054,11.715c26.65,11.269 49.379,30.107 65.455,53.797l-106.465,0l-20.953,0l-43.729,0c-24.455,0 -43.165,6.9 -56.134,20.693c-12.971,13.798 -19.454,34.82 -19.454,63.072c0,28.089 6.483,49.031 19.454,62.825c12.969,13.798 31.679,20.694 56.134,20.694l64.682,0l0,-29.245l-64.682,0c-16.358,0 -28.171,-4.252 -35.439,-12.763c-7.272,-8.507 -10.907,-22.343 -10.907,-41.511c0,-19.331 3.676,-33.247 11.03,-41.759c7.349,-8.507 19.121,-12.763 35.316,-12.763l92.551,0l0,138.041l29.491,0l0,-138.041l94.758,0c-1.614,-5.02 -3.432,-9.947 -5.468,-14.76c-2.095,-4.952 -4.432,-9.773 -6.95,-14.483c-13.7,-25.624 -33.455,-47.489 -57.401,-63.669c-28.338,-19.154 -62.597,-30.357 -99.343,-30.351c-24.49,-0.002 -47.895,4.972 -69.158,13.968c-31.901,13.496 -58.999,36.004 -78.153,64.352c-19.155,28.337 -30.356,62.596 -30.35,99.341c-0.002,24.491 4.971,47.896 13.967,69.159c13.497,31.901 36.005,58.999 64.352,78.153c28.338,19.154 62.597,30.355 99.342,30.35c24.491,0.003 47.895,-4.971 69.159,-13.967c31.9,-13.497 58.999,-36.005 78.152,-64.353c14.559,-21.537 24.506,-46.5 28.448,-73.37l21.435,0Z" style="fill:#b30000;fill-opacity:0;stroke:url(#_Linear10);stroke-width:1.5px;"/></g><defs><linearGradient id="_Linear1" x1="0" y1="0" x2="1" y2="0" gradientUnits="userSpaceOnUse" gradientTransform="matrix(969.763,644.921,-644.921,969.763,-139.043,-117.738)"><stop offset="0" style="stop-color:#2f80ed;stop-opacity:1"/><stop offset="1" style="stop-color:#55c9f2;stop-opacity:1"/></linearGradient><linearGradient id="_Linear2" x1="0" y1="0" x2="1" y2="0" gradientUnits="userSpaceOnUse" gradientTransform="matrix(969.763,644.921,-644.921,969.763,-139.043,-117.738)"><stop offset="0" style="stop-color:#2f80ed;stop-opacity:1"/><stop offset="1" style="stop-color:#55c9f2;stop-opacity:1"/></linearGradient><linearGradient id="_Linear3" x1="0" y1="0" x2="1" y2="0" gradientUnits="userSpaceOnUse" gradientTransform="matrix(969.763,644.921,-644.921,969.763,-139.043,-117.738)"><stop offset="0" style="stop-color:#2f80ed;stop-opacity:1"/><stop offset="1" style="stop-color:#55c9f2;stop-opacity:1"/></linearGradient><linearGradient id="_Linear4" x1="0" y1="0" x2="1" y2="0" gradientUnits="userSpaceOnUse" gradientTransform="matrix(969.763,644.921,-644.921,969.763,-139.043,-117.738)"><stop offset="0" style="stop-color:#2f80ed;stop-opacity:1"/><stop offset="1" style="stop-color:#55c9f2;stop-opacity:1"/></linearGradient><linearGradient id="_Linear5" x1="0" y1="0" x2="1" y2="0" gradientUnits="userSpaceOnUse" gradientTransform="matrix(969.763,644.921,-644.921,969.763,-139.043,-117.738)"><stop offset="0" style="stop-color:#2f80ed;stop-opacity:1"/><stop offset="1" style="stop-color:#55c9f2;stop-opacity:1"/></linearGradient><linearGradient id="_Linear6" x1="0" y1="0" x2="1" y2="0" gradientUnits="userSpaceOnUse" gradientTransform="matrix(969.763,644.921,-644.921,969.763,-139.043,-117.738)"><stop offset="0" style="stop-color:#2f80ed;stop-opacity:1"/><stop offset="1" style="stop-color:#55c9f2;stop-opacity:1"/></linearGradient><linearGradient id="_Linear7" x1="0" y1="0" x2="1" y2="0" gradientUnits="userSpaceOnUse" gradientTransform="matrix(969.763,644.921,-644.921,969.763,-139.043,-117.738)"><stop offset="0" style="stop-color:#2f80ed;stop-opacity:1"/><stop offset="1" style="stop-color:#55c9f2;stop-opacity:1"/></linearGradient><linearGradient id="_Linear8" x1="0" y1="0" x2="1" y2="0" gradientUnits="userSpaceOnUse" gradientTransform="matrix(969.763,644.921,-644.921,969.763,-139.043,-117.738)"><stop offset="0" style="stop-color:#2f80ed;stop-opacity:1"/><stop offset="1" style="stop-color:#55c9f2;stop-opacity:1"/></linearGradient><linearGradient id="_Linear9" x1="0" y1="0" x2="1" y2="0" gradientUnits="userSpaceOnUse" gradientTransform="matrix(969.763,644.921,-644.921,969.763,-139.043,-117.738)"><stop offset="0" style="stop-color:#2f80ed;stop-opacity:1"/><stop offset="1" style="stop-color:#55c9f2;stop-opacity:1"/></linearGradient><linearGradient id="_Linear10" x1="0" y1="0" x2="1" y2="0" gradientUnits="userSpaceOnUse" gradientTransform="matrix(969.763,644.921,-644.921,969.763,-139.043,-117.738)"><stop offset="0" style="stop-color:#2f80ed;stop-opacity:1"/><stop offset="1" style="stop-color:#55c9f2;stop-opacity:1"/></linearGradient></defs></svg>